<!--?xml version="1.0" encoding="us-ascii" standalone="no"?--><svg xmlns="http://www.w3.org/2000/svg" xmlns:xlink="http://www.w3.org/1999/xlink" contentstyletype="text/css" height="641px" preserveAspectRatio="none" style="width:483px;height:641px;background:#FFFFFF;" version="1.1" viewBox="0 0 483 641" width="483px" zoomAndPan="magnify"><defs></defs><g><!--cluster Bank--><g id="cluster_Bank"><rect fill="none" height="628" rx="2.5" ry="2.5" style="stroke:#181818;stroke-width:1.0;" width="211.35" x="118" y="7"></rect><text fill="#000000" font-family="sans-serif" font-size="14" font-weight="bold" lengthAdjust="spacing" textLength="38" x="204.675" y="21.9951">Bank</text></g><g id="elem_Open Account"><ellipse cx="223.6673" cy="59.0015" fill="#F1F1F1" rx="72.3073" ry="16.8615" style="stroke:#181818;stroke-width:0.5;"></ellipse><text fill="#000000" font-family="sans-serif" font-size="14" lengthAdjust="spacing" textLength="99" x="171.1673" y="62.749">Open Account</text></g><g id="elem_Close Account"><ellipse cx="223.6668" cy="127.9974" fill="#F1F1F1" rx="72.6868" ry="16.9374" style="stroke:#181818;stroke-width:0.5;"></ellipse><text fill="#000000" font-family="sans-serif" font-size="14" lengthAdjust="spacing" textLength="100" x="170.6668" y="131.7449">Close Account</text></g><g id="elem_Deposit"><ellipse cx="223.6715" cy="195.0046" fill="#F1F1F1" rx="50.3615" ry="14.6946" style="stroke:#181818;stroke-width:0.5;"></ellipse><text fill="#000000" font-family="sans-serif" font-size="14" lengthAdjust="spacing" textLength="54" x="193.6715" y="198.7522">Deposit</text></g><g id="elem_Withdraw"><ellipse cx="223.6699" cy="259.0011" fill="#F1F1F1" rx="57.0799" ry="14.7511" style="stroke:#181818;stroke-width:0.5;"></ellipse><text fill="#000000" font-family="sans-serif" font-size="14" lengthAdjust="spacing" textLength="63" x="189.1699" y="262.7487">Withdraw</text></g><g id="elem_Transfer"><ellipse cx="223.6707" cy="322.995" fill="#F1F1F1" rx="52.6007" ry="14.715" style="stroke:#181818;stroke-width:0.5;"></ellipse><text fill="#000000" font-family="sans-serif" font-size="14" lengthAdjust="spacing" textLength="57" x="192.1707" y="326.7426">Transfer</text></g><g id="elem_View Account"><ellipse cx="223.6734" cy="389.0027" fill="#F1F1F1" rx="70.0634" ry="16.4127" style="stroke:#181818;stroke-width:0.5;"></ellipse><text fill="#000000" font-family="sans-serif" font-size="14" lengthAdjust="spacing" textLength="93" x="174.1734" y="392.7502">View Account</text></g><g id="elem_Edit Account"><ellipse cx="223.6707" cy="455.9961" fill="#F1F1F1" rx="67.8807" ry="15.9761" style="stroke:#181818;stroke-width:0.5;"></ellipse><text fill="#000000" font-family="sans-serif" font-size="14" lengthAdjust="spacing" textLength="87" x="177.1707" y="459.7437">Edit Account</text></g><g id="elem_Process Transaction"><ellipse cx="223.6728" cy="527.0046" fill="#F1F1F1" rx="89.6728" ry="20.3346" style="stroke:#181818;stroke-width:0.5;"></ellipse><text fill="#000000" font-family="sans-serif" font-size="14" lengthAdjust="spacing" textLength="141" x="153.1728" y="529.8512">Process Transaction</text></g><g id="elem_Generate Report"><ellipse cx="223.6652" cy="601.003" fill="#F1F1F1" rx="78.9652" ry="18.193" style="stroke:#181818;stroke-width:0.5;"></ellipse><text fill="#000000" font-family="sans-serif" font-size="14" lengthAdjust="spacing" textLength="116" x="163.6" y="604.4986">Generate Report</text></g><!--entity Customer--><g id="elem_Customer"><ellipse cx="40" cy="165.35" fill="#F1F1F1" rx="8" ry="8" style="stroke:#181818;stroke-width:0.5;"></ellipse><path d="M40,173.35 L40,200.35 M27,181.35 L53,181.35 M40,200.35 L27,215.35 M40,200.35 L53,215.35 " fill="none" style="stroke:#181818;stroke-width:0.5;"></path><text fill="#000000" font-family="sans-serif" font-size="14" lengthAdjust="spacing" textLength="68" x="6" y="229.8451">Customer</text></g><!--entity BankEmployee--><g id="elem_BankEmployee"><ellipse cx="424.85" cy="293.35" fill="#F1F1F1" rx="8" ry="8" style="stroke:#181818;stroke-width:0.5;"></ellipse><path d="M424.85,301.35 L424.85,328.35 M411.85,309.35 L437.85,309.35 M424.85,328.35 L411.85,343.35 M424.85,328.35 L437.85,343.35 " fill="none" style="stroke:#181818;stroke-width:0.5;"></path><text fill="#000000" font-family="sans-serif" font-size="14" lengthAdjust="spacing" textLength="103" x="373.35" y="357.8451">BankEmployee</text></g><!--entity Manager--><g id="elem_Manager"><ellipse cx="40" cy="461.35" fill="#F1F1F1" rx="8" ry="8" style="stroke:#181818;stroke-width:0.5;"></ellipse><path d="M40,469.35 L40,496.35 M27,477.35 L53,477.35 M40,496.35 L27,511.35 M40,496.35 L53,511.35 " fill="none" style="stroke:#181818;stroke-width:0.5;"></path><text fill="#000000" font-family="sans-serif" font-size="14" lengthAdjust="spacing" textLength="60" x="10" y="525.8451">Manager</text></g><!--link Customer to Open Account--><g id="link_Customer_Open Account"><path d="M59.1,156.61 C70.89,135.4 88.14,110.15 110,94 C124.36,83.39 142,75.95 159.02,70.75 " fill="none" id="Customer-to-Open Account" style="stroke:#181818;stroke-width:1.0;"></path><polygon fill="#181818" points="163.76,69.07,153.9964,67.7768,158.9639,70.4831,156.2575,75.4506,163.76,69.07" style="stroke:#181818;stroke-width:1.0;"></polygon></g><!--link Customer to Close Account--><g id="link_Customer_Close Account"><path d="M74.31,178.47 C85.51,173.2 98.17,167.56 110,163 C129.39,155.53 151.11,148.48 170.27,142.7 " fill="none" id="Customer-to-Close Account" style="stroke:#181818;stroke-width:1.0;"></path><polygon fill="#181818" points="174.6,141.1,164.8319,139.8414,169.8089,142.5302,167.1202,147.5072,174.6,141.1" style="stroke:#181818;stroke-width:1.0;"></polygon></g><!--link Customer to Deposit--><g id="link_Customer_Deposit"><path d="M74.32,195 C100.25,195 136.8,195 167.13,195 " fill="none" id="Customer-to-Deposit" style="stroke:#181818;stroke-width:1.0;"></path><polygon fill="#181818" points="172.11,195,163.11,191,167.11,195,163.11,199,172.11,195" style="stroke:#181818;stroke-width:1.0;"></polygon></g><!--link Customer to Withdraw--><g id="link_Customer_Withdraw"><path d="M74.24,211.7 C85.44,216.99 98.12,222.59 110,227 C131.08,234.83 154.98,241.86 175.33,247.33 " fill="none" id="Customer-to-Withdraw" style="stroke:#181818;stroke-width:1.0;"></path><polygon fill="#181818" points="179.96,248.83,172.2923,242.6489,175.1284,247.5435,170.2338,250.3796,179.96,248.83" style="stroke:#181818;stroke-width:1.0;"></polygon></g><!--link Customer to Transfer--><g id="link_Customer_Transfer"><path d="M60.5,233.58 C72.33,253.39 89.17,276.37 110,291 C127.42,303.23 149.43,310.81 169.36,315.5 " fill="none" id="Customer-to-Transfer" style="stroke:#181818;stroke-width:1.0;"></path><polygon fill="#181818" points="174.2,316.8,166.282,310.9429,169.3191,315.7153,164.5466,318.7524,174.2,316.8" style="stroke:#181818;stroke-width:1.0;"></polygon></g><!--link Open Account to BankEmployee--><g id="link_Open Account_BankEmployee"><path d="M286.67,67.61 C304.82,72.75 323.48,80.94 337.35,94 C389.63,143.24 410.58,227.26 418.78,278.68 " fill="none" id="Open Account-to-BankEmployee" style="stroke:#181818;stroke-width:1.0;"></path><polygon fill="#181818" points="419.67,283.48,422.2612,273.9781,418.9129,278.5376,414.3534,275.1894,419.67,283.48" style="stroke:#181818;stroke-width:1.0;"></polygon></g><!--link Close Account to BankEmployee--><g id="link_Close Account_BankEmployee"><path d="M284.77,137.53 C303.13,142.72 322.39,150.71 337.35,163 C374.08,193.2 397.53,243.24 410.61,279.32 " fill="none" id="Close Account-to-BankEmployee" style="stroke:#181818;stroke-width:1.0;"></path><polygon fill="#181818" points="412.46,283.54,413.1962,273.7187,410.7765,278.8319,405.6633,276.4123,412.46,283.54" style="stroke:#181818;stroke-width:1.0;"></polygon></g><!--link Deposit to BankEmployee--><g id="link_Deposit_BankEmployee"><path d="M269.29,201.69 C291.02,206.39 316.81,214.21 337.35,227 C359.11,240.56 378.69,261.15 393.69,279.79 " fill="none" id="Deposit-to-BankEmployee" style="stroke:#181818;stroke-width:1.0;"></path><polygon fill="#181818" points="397.4,283.48,394.9481,273.9412,394.2958,279.5604,388.6766,278.908,397.4,283.48" style="stroke:#181818;stroke-width:1.0;"></polygon></g><!--link Withdraw to BankEmployee--><g id="link_Withdraw_BankEmployee"><path d="M264.79,269.58 C286.41,275.49 313.47,283.21 337.35,291 C347.11,294.19 357.4,297.78 367.36,301.39 " fill="none" id="Withdraw-to-BankEmployee" style="stroke:#181818;stroke-width:1.0;"></path><polygon fill="#181818" points="371.85,303.39,364.7655,296.5482,367.1527,301.6767,362.0242,304.0639,371.85,303.39" style="stroke:#181818;stroke-width:1.0;"></polygon></g><!--link Transfer to BankEmployee--><g id="link_Transfer_BankEmployee"><path d="M276.74,323 C304.51,323 338.7,323 367.14,323 " fill="none" id="Transfer-to-BankEmployee" style="stroke:#181818;stroke-width:1.0;"></path><polygon fill="#181818" points="372.11,323,363.11,319,367.11,323,363.11,327,372.11,323" style="stroke:#181818;stroke-width:1.0;"></polygon></g><!--link BankEmployee to View Account--><g id="link_BankEmployee_View Account"><path d="M373.26,342.3 C361.52,346.62 349.03,351.08 337.35,355 C317.07,361.8 294.54,368.73 274.99,374.53 " fill="none" id="BankEmployee-to-View Account" style="stroke:#181818;stroke-width:1.0;"></path><polygon fill="#181818" points="270.29,376.22,280.0536,377.5132,275.0861,374.8069,277.7925,369.8394,270.29,376.22" style="stroke:#181818;stroke-width:1.0;"></polygon></g><!--link BankEmployee to Edit Account--><g id="link_BankEmployee_Edit Account"><path d="M398.77,361.58 C383.35,382.5 361.87,407.24 337.35,423 C321.65,433.09 302.78,440.18 285,445.13 " fill="none" id="BankEmployee-to-Edit Account" style="stroke:#181818;stroke-width:1.0;"></path><polygon fill="#181818" points="280.52,446.6,290.2504,448.1227,285.3481,445.3001,288.1706,440.3978,280.52,446.6" style="stroke:#181818;stroke-width:1.0;"></polygon></g><!--link BankEmployee to Process Transaction--><g id="link_BankEmployee_Process Transaction"><path d="M413.03,361.61 C400.61,399.15 376.73,455.3 337.35,489 C325.82,498.86 311.63,506.19 297.25,511.63 " fill="none" id="BankEmployee-to-Process Transaction" style="stroke:#181818;stroke-width:1.0;"></path><polygon fill="#181818" points="292.95,513.56,302.7739,514.2603,297.6519,511.8593,300.0528,506.7373,292.95,513.56" style="stroke:#181818;stroke-width:1.0;"></polygon></g><!--link BankEmployee to Generate Report--><g id="link_BankEmployee_Generate Report"><path d="M420.55,361.34 C413.96,414.37 394.45,509.81 337.35,565 C325.9,576.06 311.07,583.72 295.94,589.03 " fill="none" id="BankEmployee-to-Generate Report" style="stroke:#181818;stroke-width:1.0;"></path><polygon fill="#181818" points="291.36,590.88,301.1613,591.8464,296.1063,589.3074,298.6452,584.2524,291.36,590.88" style="stroke:#181818;stroke-width:1.0;"></polygon></g><!--link Manager to View Account--><g id="link_Manager_View Account"><path d="M70.19,455.94 C81.57,444.08 95.39,431.67 110,423 C126.24,413.36 145.45,406.25 163.35,401.1 " fill="none" id="Manager-to-View Account" style="stroke:#181818;stroke-width:1.0;"></path><polygon fill="#181818" points="167.86,399.56,158.1162,398.1252,163.0438,400.9034,160.2656,405.831,167.86,399.56" style="stroke:#181818;stroke-width:1.0;"></polygon></g><!--link Manager to Edit Account--><g id="link_Manager_Edit Account"><path d="M70.19,485.38 C95.49,480.5 132.89,473.3 164.31,467.24 " fill="none" id="Manager-to-Edit Account" style="stroke:#181818;stroke-width:1.0;"></path><polygon fill="#181818" points="169.1,466.13,159.5063,463.9026,164.1901,467.0748,161.0179,471.7585,169.1,466.13" style="stroke:#181818;stroke-width:1.0;"></polygon></g><!--link Manager to Process Transaction--><g id="link_Manager_Process Transaction"><path d="M70.19,496.78 C91.54,501.01 121.49,506.95 149.21,512.44 " fill="none" id="Manager-to-Process Transaction" style="stroke:#181818;stroke-width:1.0;"></path><polygon fill="#181818" points="154.08,513.61,146.0297,507.9362,149.1755,512.6377,144.474,515.7834,154.08,513.61" style="stroke:#181818;stroke-width:1.0;"></polygon></g><!--link Manager to Generate Report--><g id="link_Manager_Generate Report"><path d="M70.11,529.47 C81.39,542.25 95.16,555.6 110,565 C124.81,574.38 142.26,581.51 158.96,586.84 " fill="none" id="Manager-to-Generate Report" style="stroke:#181818;stroke-width:1.0;"></path><polygon fill="#181818" points="163.59,588.58,156.1806,582.0915,158.8148,587.0976,153.8087,589.7317,163.59,588.58" style="stroke:#181818;stroke-width:1.0;"></polygon></g><!--SRC=[XPB1JiCm343l-GeVsM6_W0HZueH0WCRPIhqkQXf7ZgTfclXtIkWgeZRGM_EUfUUqdlOAoY2kFIWqJiYgus1Ivq94mHuYsWvRUjEp9_Z665fFng1L5jWSat9FChxUO-YsVVHy9XgFdZ0CusBCD9ijk1WOdkiyhDUtSFCSAS2TjNmCkbhW6y-9_X8UA79oY-Z3wQ4HF2snTy6GzYGhas7PaPLYiUoKBHNfsbF1KrE5JrrpdeNV9p-Rx1oToWkQEzl6wN_EYx2bb20NOFudQkeZ1H9KWjTXMT7n3iVFNgigy3oemDMMmffbV7u1]--></g></svg>